<?xml version="1.0" encoding="utf-8"?>
<!-- Generator: Adobe Illustrator 26.1.0, SVG Export Plug-In . SVG Version: 6.00 Build 0)  -->
<svg version="1.1" xmlns="http://www.w3.org/2000/svg" xmlns:xlink="http://www.w3.org/1999/xlink" x="0px" y="0px"
	 viewBox="0 0 90 40" style="enable-background:new 0 0 90 40;" xml:space="preserve">
<style type="text/css">
	.st0{display:none;}
	.st1{display:inline;}
	.st2{fill:#213564;}
	.st3{fill:#9CD5DF;}
	.st4{fill:#075D82;}
	.st5{fill:#6FC6D3;}
	.st6{fill:#195DA9;}
	.st7{fill:#5F80C0;}
	.st8{display:inline;opacity:0.8;fill:#151E1E;}
	.st9{fill:#FFFFFF;}
	.st10{fill:#002E6D;}
	.st11{display:inline;fill:#002E6D;}
	.st12{fill:none;}
</style>
<g id="Capa_1" class="st0">
	<g class="st1">
		<path class="st2" d="M10,25.6c-3.9-0.8-4.8-1.8-4.8-3.4c0-1.6,1.5-2.9,3.7-2.9c1.8,0,3.4,0.6,5.1,1.9l1.2-1.5
			c-1.8-1.4-3.6-2.2-6.2-2.2c-3.3,0-5.8,2-5.8,4.8c0,2.9,1.9,4.2,5.9,5.1c3.7,0.8,4.6,1.7,4.6,3.4c0,1.8-1.6,3-3.9,3
			c-2.4,0-4.2-0.8-6-2.5l-1.2,1.5c2.1,1.9,4.4,2.8,7.2,2.8c3.5,0,6-2,6-5C15.8,27.9,13.9,26.4,10,25.6"/>
		<path class="st2" d="M23.8,22.1c-3.9,0-6.8,3.1-6.8,6.8s2.8,6.7,6.7,6.7c3.9,0,6.8-3.1,6.8-6.8C30.5,25.1,27.6,22.1,23.8,22.1
			 M23.8,33.9c-2.7,0-4.8-2.3-4.8-5.1c0-2.8,1.9-5,4.7-5c2.7,0,4.8,2.3,4.8,5.1C28.5,31.7,26.6,33.9,23.8,33.9"/>
		<path class="st2" d="M43.6,18.5h-1.9v4v0h-6.6v-1.1c0-1.9,0.8-2.8,2.3-2.8c0.7,0,1.2,0.1,1.9,0.3v-1.7c-0.6-0.2-1.2-0.3-2.1-0.3
			c-2.5,0-3.9,1.5-3.9,4.3v1.1h-1.8v1.7h1.8v11.3h0.1c1,0,1.8-0.8,1.8-1.8v-9.5h6.6v7.8c0,2.6,1.6,3.7,3.7,3.7
			c0.9,0,1.7-0.2,2.3-0.6v-1.7c-0.7,0.3-1.2,0.5-1.9,0.5c-1.3,0-2.2-0.6-2.2-2.2v-7.6h4.1v-1.7h-4.1V18.5z"/>
		<path class="st2" d="M75.6,34.4c0-0.2-0.1-0.3-0.2-0.3c-0.1,0-0.2,0-0.3,0l-0.4,0l0,1.2l0.2,0l0-0.5l0.2,0c0.1,0,0.2,0,0.2,0
			c0.1,0,0.1,0.1,0.1,0.3l0,0.1l0,0c0,0,0,0,0,0c0,0,0,0,0,0l0.2,0l0,0c0,0,0,0,0-0.1c0,0,0-0.1,0-0.1l0-0.1c0-0.1,0-0.1-0.1-0.2
			c0-0.1-0.1-0.1-0.2-0.1c0.1,0,0.1,0,0.2-0.1C75.5,34.5,75.6,34.5,75.6,34.4 M75.2,34.6c0,0-0.1,0-0.2,0l-0.2,0l0-0.4l0.2,0
			c0.1,0,0.2,0,0.3,0c0.1,0,0.1,0.1,0.1,0.2C75.4,34.5,75.3,34.5,75.2,34.6"/>
		<path class="st2" d="M75.9,33.8c-0.2-0.2-0.5-0.3-0.8-0.3c-0.3,0-0.6,0.1-0.8,0.3c-0.2,0.2-0.3,0.5-0.3,0.8c0,0.3,0.1,0.6,0.3,0.8
			c0.2,0.2,0.5,0.3,0.8,0.3c0.3,0,0.6-0.1,0.8-0.3c0.2-0.2,0.3-0.5,0.3-0.8C76.2,34.3,76.1,34,75.9,33.8 M75.7,35.3
			c-0.2,0.2-0.4,0.3-0.7,0.3c-0.3,0-0.5-0.1-0.7-0.3c-0.2-0.2-0.3-0.4-0.3-0.7c0-0.3,0.1-0.5,0.3-0.7c0.2-0.2,0.4-0.3,0.7-0.3
			c0.3,0,0.5,0.1,0.7,0.3c0.2,0.2,0.3,0.4,0.3,0.7C76,34.9,75.9,35.1,75.7,35.3"/>
		<polygon class="st2" points="54.3,40 52,40 54.1,35.2 48.9,22.6 51.4,22.6 53.9,29.2 55.3,32.9 56.7,29.3 59.5,22.6 61.9,22.6 		
			"/>
		<path class="st2" d="M71.5,25.4c-1.1-1-2.3-1.2-3.6-1.2c-1.8,0-3.2,0.6-3.2,1.9c0,1.3,1.6,1.7,3.2,1.9c2.3,0.3,5.5,0.8,5.4,3.9
			c-0.1,2.6-2.5,3.9-5.4,3.9c-2.2,0-4.3-0.6-5.8-2.4l1.2-1.5c1.1,1.4,3,2,4.6,2c1.4,0,3.2-0.4,3.3-2c0-1.4-1.5-1.8-3.5-2.1
			c-2.5-0.3-5.1-1-5.1-3.7c0-2.7,2.7-3.8,5.2-3.8c1.9,0,3.5,0.5,4.9,1.7L71.5,25.4L71.5,25.4z"/>
		<path class="st2" d="M89,8.5c-0.7-3.4-3.2-6.2-6.5-7.3C82.2,1.1,82,1,81.8,1c-0.2-0.1-0.5-0.1-0.7-0.2c0,0,0,0,0,0
			c-0.6-0.1-1.2-0.2-1.8-0.2c-0.4,0-0.8,0-1.2,0.1c-0.6,0.1-1.1,0.2-1.6,0.3c-3.5,1.1-6.2,4.1-6.9,7.8c-0.1,0.6-0.2,1.2-0.2,1.8
			c0,1.7,0.4,3.2,1.1,4.6c1.1,2.2,3,3.8,5.3,4.7c1.1,0.4,2.1,0.6,3,0.6c0.2,0,0.3,0,0.5,0c3.6,0,6.7-1.9,8.5-4.8c0,0,0,0,0,0
			c0.7-1.1,1.2-2.4,1.3-3.8c0.1-0.4,0.1-0.9,0.1-1.3C89.2,9.9,89.1,9.2,89,8.5 M79.2,6.1c2.5,0,4.4,2,4.4,4.4c0,0,0,0,0,0
			c0,1.5-0.8,2.9-2,3.7C81,14.7,80.1,15,79.2,15c-1.2,0-2.3-0.5-3.1-1.3c-0.8-0.8-1.3-1.9-1.3-3.2c0-1.2,0.5-2.3,1.2-3.1
			c0.5-0.5,1.1-0.9,1.8-1.2C78.3,6.2,78.8,6.1,79.2,6.1"/>
		<path class="st3" d="M76.1,3c0.1-0.7,0.1-1.3,0.2-2c-3.6,1.1-6.3,4.1-7,7.8C71.5,6.6,73.8,4.5,76.1,3"/>
		<path class="st4" d="M75.7,17.1L75.7,17.1c0-0.2,0-0.5,0.1-0.7c0.1-0.8,0.2-1.6,0.3-2.4c0-0.1,0-0.3,0.1-0.4
			c-0.8-0.8-1.3-1.9-1.3-3.1c0-1.2,0.5-2.2,1.2-3C76,6.1,76,4.6,76.1,3c-2.3,1.5-4.6,3.6-6.7,5.8c-0.1,0.6-0.2,1.2-0.2,1.8
			c0,1.7,0.4,3.3,1.1,4.6C72.2,16.3,74,17,75.7,17.1"/>
		<path class="st4" d="M81.1,0.7c-0.6-0.1-1.2-0.2-1.9-0.2c-0.4,0-0.8,0-1.2,0.1c-0.6,0.1-1.1,0.2-1.6,0.3c-0.1,0.7-0.2,1.3-0.2,2
			C77.8,1.9,79.4,1.1,81.1,0.7"/>
		<path class="st2" d="M76.1,7.6c0.5-0.5,1.1-0.9,1.8-1.2c0.8-2.3,1.8-4.3,3.2-5.7c0,0,0,0,0,0c-1.6,0.4-3.3,1.2-4.9,2.3
			C76,4.6,76,6.1,76.1,7.6"/>
		<path class="st5" d="M80.3,15.7c0.1-0.1,0.3-0.3,0.4-0.4h0C80.6,15.4,80.4,15.5,80.3,15.7c-1.4,1.2-2.9,1.6-4.6,1.5
			c-1.7-0.1-3.5-0.8-5.4-1.9c1.1,2.2,3.1,3.9,5.4,4.7c1.1,0.4,2.2,0.6,3,0.6c0.2,0,0.3,0,0.5,0c3.6,0,6.8-1.9,8.5-4.8
			c-0.4,0.1-0.7,0.2-1.1,0.3C84,16.6,81.9,16.4,80.3,15.7"/>
		<path class="st6" d="M89,8.5c-0.7-3.4-3.2-6.2-6.5-7.4C82.3,1,82,1,81.8,0.9c2.5,2,3.6,5.1,1.8,9.7v0c0,1.5-0.8,2.9-2,3.6
			c-0.1,0.1-0.1,0.2-0.2,0.3c-0.2,0.3-0.5,0.5-0.7,0.8c-0.1,0.1-0.3,0.3-0.4,0.4c1.6,0.8,3.7,1,6.4,0.4c0.4-0.1,0.7-0.2,1.1-0.3
			c0,0,0,0,0,0c0.7-1.1,1.2-2.5,1.4-3.8c0.1-0.4,0.1-0.9,0.1-1.3C89.2,9.9,89.2,9.1,89,8.5"/>
		<path class="st7" d="M79.2,6.2c2.4,0,4.4,2,4.4,4.4c1.7-4.6,0.7-7.6-1.8-9.7c-0.2-0.1-0.5-0.1-0.7-0.2c-1.3,1.4-2.4,3.4-3.2,5.7
			C78.3,6.3,78.8,6.2,79.2,6.2"/>
		<path class="st3" d="M79.2,14.9c-1.2,0-2.3-0.5-3.1-1.3c0,0.1,0,0.3-0.1,0.4c-0.1,0.8-0.2,1.6-0.3,2.4c0,0.2-0.1,0.5-0.1,0.7
			c1.6,0.1,3.2-0.3,4.6-1.5c0.1-0.1,0.3-0.3,0.4-0.4c0.2-0.2,0.5-0.5,0.7-0.8c0.1-0.1,0.1-0.2,0.2-0.3C81,14.7,80.1,14.9,79.2,14.9"
			/>
	</g>
	<g class="st1">
		<path class="st2" d="M8.7,2.7v4.4C8.7,7.9,8.5,8.5,8,9S6.9,9.6,6,9.6S4.6,9.4,4.1,9C3.7,8.5,3.5,7.9,3.5,7.1V2.7h0.8v4.5
			c0,0.6,0.2,1,0.5,1.3s0.8,0.5,1.4,0.5c0.6,0,1-0.2,1.3-0.5c0.3-0.3,0.5-0.7,0.5-1.3V2.7H8.7z"/>
		<path class="st2" d="M13.9,9.5V6.2c0-0.4-0.1-0.7-0.3-0.9S13.1,5,12.7,5c-0.5,0-0.9,0.1-1.2,0.4c-0.2,0.3-0.4,0.8-0.4,1.4v2.7
			h-0.8V4.4H11l0.1,0.7h0c0.2-0.3,0.4-0.4,0.7-0.6c0.3-0.1,0.6-0.2,1-0.2c0.6,0,1.1,0.1,1.4,0.4c0.3,0.3,0.5,0.8,0.5,1.4v3.3H13.9z"
			/>
		<path class="st2" d="M19.4,9.5l-0.2-0.7h0c-0.3,0.3-0.5,0.5-0.8,0.7s-0.6,0.2-1,0.2c-0.5,0-0.9-0.1-1.2-0.4
			C16,9,15.9,8.6,15.9,8.1c0-1,0.8-1.6,2.5-1.6l0.9,0V6.1c0-0.4-0.1-0.7-0.3-0.9C18.8,5.1,18.5,5,18.2,5c-0.4,0-0.9,0.1-1.5,0.4
			l-0.2-0.6c0.3-0.1,0.5-0.2,0.8-0.3c0.3-0.1,0.6-0.1,0.9-0.1c0.6,0,1.1,0.1,1.4,0.4S20,5.4,20,6v3.5H19.4z M17.7,9
			c0.5,0,0.9-0.1,1.1-0.4s0.4-0.6,0.4-1.1V7l-0.8,0c-0.6,0-1.1,0.1-1.3,0.3c-0.3,0.2-0.4,0.4-0.4,0.8c0,0.3,0.1,0.5,0.3,0.6
			S17.4,9,17.7,9z"/>
		<path class="st2" d="M30.6,9.5V6.2c0-0.4-0.1-0.7-0.3-0.9C30.2,5.1,29.9,5,29.6,5c-0.5,0-0.8,0.1-1.1,0.4
			c-0.2,0.3-0.3,0.7-0.3,1.3v2.9h-0.8V6.2c0-0.4-0.1-0.7-0.3-0.9C26.9,5.1,26.6,5,26.3,5c-0.5,0-0.8,0.1-1.1,0.4
			c-0.2,0.3-0.3,0.8-0.3,1.4v2.7h-0.8V4.4h0.6l0.1,0.7h0c0.1-0.2,0.4-0.4,0.6-0.6c0.3-0.1,0.6-0.2,0.9-0.2c0.8,0,1.3,0.3,1.6,0.9h0
			c0.2-0.3,0.4-0.5,0.7-0.6c0.3-0.2,0.6-0.2,1-0.2c0.6,0,1,0.1,1.3,0.4c0.3,0.3,0.4,0.8,0.4,1.4v3.3H30.6z"/>
		<path class="st2" d="M36.2,9.5L36,8.8h0c-0.3,0.3-0.5,0.5-0.8,0.7s-0.6,0.2-1,0.2c-0.5,0-0.9-0.1-1.2-0.4
			c-0.3-0.3-0.4-0.6-0.4-1.1c0-1,0.8-1.6,2.5-1.6l0.9,0V6.1c0-0.4-0.1-0.7-0.3-0.9C35.5,5.1,35.3,5,34.9,5c-0.4,0-0.9,0.1-1.5,0.4
			l-0.2-0.6c0.3-0.1,0.5-0.2,0.8-0.3c0.3-0.1,0.6-0.1,0.9-0.1c0.6,0,1.1,0.1,1.4,0.4s0.4,0.7,0.4,1.3v3.5H36.2z M34.4,9
			c0.5,0,0.9-0.1,1.1-0.4S36,8,36,7.5V7l-0.8,0c-0.6,0-1.1,0.1-1.3,0.3c-0.3,0.2-0.4,0.4-0.4,0.8c0,0.3,0.1,0.5,0.3,0.6
			S34.1,9,34.4,9z"/>
		<path class="st2" d="M40.7,4.3c0.2,0,0.4,0,0.6,0.1l-0.1,0.7C41,5,40.8,5,40.6,5c-0.4,0-0.8,0.2-1.1,0.5c-0.3,0.3-0.4,0.8-0.4,1.3
			v2.8h-0.8V4.4H39l0.1,0.9h0c0.2-0.3,0.4-0.6,0.7-0.8C40.1,4.4,40.4,4.3,40.7,4.3z"/>
		<path class="st2" d="M44.3,9.6c-0.7,0-1.3-0.2-1.7-0.7C42.2,8.5,42,7.8,42,7c0-0.9,0.2-1.5,0.6-2c0.4-0.5,1-0.7,1.8-0.7
			c0.2,0,0.5,0,0.7,0.1s0.4,0.1,0.6,0.2l-0.2,0.7c-0.2-0.1-0.4-0.1-0.6-0.2C44.7,5,44.5,5,44.3,5c-1,0-1.6,0.7-1.6,2
			c0,0.6,0.1,1.1,0.4,1.5c0.3,0.3,0.6,0.5,1.1,0.5c0.4,0,0.9-0.1,1.3-0.3v0.7C45.3,9.5,44.8,9.6,44.3,9.6z"/>
		<path class="st2" d="M50,9.5l-0.2-0.7h0c-0.3,0.3-0.5,0.5-0.8,0.7s-0.6,0.2-1,0.2c-0.5,0-0.9-0.1-1.2-0.4
			c-0.3-0.3-0.4-0.6-0.4-1.1c0-1,0.8-1.6,2.5-1.6l0.9,0V6.1c0-0.4-0.1-0.7-0.3-0.9C49.4,5.1,49.1,5,48.7,5c-0.4,0-0.9,0.1-1.5,0.4
			L47,4.8c0.3-0.1,0.5-0.2,0.8-0.3c0.3-0.1,0.6-0.1,0.9-0.1c0.6,0,1.1,0.1,1.4,0.4s0.4,0.7,0.4,1.3v3.5H50z M48.2,9
			c0.5,0,0.9-0.1,1.1-0.4s0.4-0.6,0.4-1.1V7L49,7c-0.6,0-1.1,0.1-1.3,0.3s-0.4,0.4-0.4,0.8c0,0.3,0.1,0.5,0.3,0.6S47.9,9,48.2,9z"/>
		<path class="st2" d="M58.1,8.8L58.1,8.8c-0.4,0.5-0.9,0.8-1.7,0.8c-0.7,0-1.2-0.2-1.6-0.7c-0.4-0.5-0.6-1.1-0.6-2s0.2-1.5,0.6-2
			c0.4-0.5,0.9-0.7,1.6-0.7c0.7,0,1.2,0.3,1.6,0.8h0.1l0-0.4l0-0.4V2.2h0.8v7.3h-0.6L58.1,8.8z M56.6,9c0.5,0,0.9-0.1,1.2-0.4
			s0.4-0.8,0.4-1.4V7c0-0.7-0.1-1.2-0.4-1.6C57.5,5.1,57.1,5,56.6,5c-0.5,0-0.8,0.2-1,0.5c-0.2,0.4-0.4,0.9-0.4,1.5
			c0,0.7,0.1,1.1,0.4,1.5C55.8,8.8,56.1,9,56.6,9z"/>
		<path class="st2" d="M62.7,9.6c-0.8,0-1.4-0.2-1.8-0.7c-0.4-0.5-0.7-1.1-0.7-1.9c0-0.8,0.2-1.5,0.6-2s1-0.7,1.6-0.7
			c0.6,0,1.2,0.2,1.5,0.6c0.4,0.4,0.6,1,0.6,1.7v0.5H61c0,0.6,0.2,1.1,0.5,1.4c0.3,0.3,0.7,0.5,1.2,0.5c0.6,0,1.1-0.1,1.6-0.3v0.7
			c-0.3,0.1-0.5,0.2-0.8,0.3C63.3,9.6,63,9.6,62.7,9.6z M62.5,5c-0.4,0-0.7,0.1-1,0.4C61.2,5.6,61.1,6,61,6.5h2.7
			c0-0.5-0.1-0.9-0.3-1.1C63.2,5.1,62.9,5,62.5,5z"/>
	</g>
</g>
<g id="Capa_4" class="st0">
	<rect x="-1.6" y="-0.5" class="st8" width="104.4" height="50"/>
</g>
<g id="Capa_2_copia">
	<g>
		<path class="st9" d="M10.5,26c-3.8-0.8-4.7-1.7-4.7-3.4c0-1.6,1.4-2.8,3.7-2.8c1.8,0,3.4,0.6,5,1.9l1.1-1.5
			c-1.8-1.4-3.6-2.1-6.1-2.1c-3.3,0-5.7,2-5.7,4.8c0,2.9,1.8,4.2,5.9,5.1c3.7,0.8,4.5,1.7,4.5,3.3c0,1.8-1.5,3-3.9,3
			c-2.4,0-4.2-0.8-6-2.5l-1.2,1.4c2.1,1.9,4.4,2.8,7.1,2.8c3.5,0,6-1.9,6-5C16.2,28.3,14.4,26.9,10.5,26"/>
		<path class="st9" d="M24.1,22.5c-3.9,0-6.7,3.1-6.7,6.7s2.8,6.7,6.7,6.7c3.9,0,6.8-3.1,6.8-6.7C30.8,25.6,28,22.5,24.1,22.5
			 M24.1,34.3c-2.7,0-4.8-2.2-4.8-5c0-2.8,1.9-5,4.7-5c2.7,0,4.8,2.2,4.8,5.1C28.9,32,26.9,34.3,24.1,34.3"/>
		<path class="st9" d="M43.9,18.9H42v3.9v0h-6.6v-1c0-1.8,0.7-2.7,2.2-2.7c0.6,0,1.2,0.1,1.9,0.3v-1.7c-0.6-0.2-1.2-0.3-2.1-0.3
			c-2.5,0-3.9,1.5-3.9,4.3v1.1h-1.8v1.7h1.8v11.2h0.1c1,0,1.8-0.8,1.8-1.8v-9.4H42v7.8c0,2.6,1.6,3.6,3.6,3.6c0.9,0,1.6-0.2,2.3-0.5
			v-1.6c-0.7,0.3-1.2,0.4-1.9,0.4c-1.3,0-2.2-0.6-2.2-2.1v-7.5H48v-1.6h-4.1V18.9z"/>
		<path class="st9" d="M75.6,34.7c0-0.2-0.1-0.3-0.2-0.3c-0.1,0-0.2,0-0.3,0l-0.4,0l0,1.2l0.2,0l0-0.5l0.2,0c0.1,0,0.2,0,0.2,0
			c0.1,0,0.1,0.1,0.1,0.3l0,0.1l0,0c0,0,0,0,0,0c0,0,0,0,0,0l0.2,0l0,0c0,0,0,0,0-0.1c0,0,0-0.1,0-0.1l0-0.1c0-0.1,0-0.1-0.1-0.2
			c0-0.1-0.1-0.1-0.2-0.1c0.1,0,0.1,0,0.2-0.1C75.5,34.9,75.6,34.8,75.6,34.7 M75.2,34.9c0,0-0.1,0-0.2,0l-0.2,0l0-0.4l0.2,0
			c0.1,0,0.2,0,0.3,0c0.1,0,0.1,0.1,0.1,0.2C75.4,34.8,75.3,34.9,75.2,34.9"/>
		<path class="st9" d="M75.9,34.2c-0.2-0.2-0.5-0.3-0.8-0.3c-0.3,0-0.6,0.1-0.8,0.3C74.1,34.4,74,34.7,74,35c0,0.3,0.1,0.6,0.3,0.8
			c0.2,0.2,0.5,0.3,0.8,0.3c0.3,0,0.6-0.1,0.8-0.3c0.2-0.2,0.3-0.5,0.3-0.8C76.2,34.7,76.1,34.4,75.9,34.2 M75.7,35.7
			c-0.2,0.2-0.4,0.3-0.7,0.3c-0.3,0-0.5-0.1-0.7-0.3c-0.2-0.2-0.3-0.4-0.3-0.7c0-0.3,0.1-0.5,0.3-0.7c0.2-0.2,0.4-0.3,0.7-0.3
			c0.3,0,0.5,0.1,0.7,0.3c0.2,0.2,0.3,0.4,0.3,0.7C76,35.2,75.9,35.5,75.7,35.7"/>
		<polygon class="st9" points="54.5,40.3 52.2,40.3 54.3,35.6 49.1,23 51.5,23 54.1,29.6 55.4,33.3 56.8,29.7 59.6,23 62,23 		"/>
		<path class="st9" d="M71.6,25.8c-1.1-1-2.3-1.2-3.6-1.2c-1.8,0-3.2,0.6-3.2,1.9c0,1.3,1.6,1.7,3.2,1.9c2.3,0.3,5.4,0.7,5.4,3.9
			c-0.1,2.6-2.5,3.8-5.4,3.8c-2.1,0-4.3-0.6-5.7-2.4l1.2-1.5c1.1,1.4,3,2,4.6,2c1.4,0,3.2-0.4,3.2-2c0-1.4-1.5-1.8-3.4-2
			c-2.5-0.3-5.1-1-5.1-3.7c0-2.7,2.7-3.8,5.2-3.7c1.9,0,3.5,0.5,4.9,1.7L71.6,25.8L71.6,25.8z"/>
	</g>
	<path class="st9" d="M75.8,13.8c0,0-1.3-1.3-1.3-3.3s1.3-3.2,1.3-3.2s-0.1-1.7-0.1-4c-1.3,0.9-4.3,3.3-6.3,5.5
		c-0.3,2.8,0.1,4.3,0.9,6.3c1.3,0.7,3.5,1.9,5,1.8C75.5,15.7,75.8,13.8,75.8,13.8z"/>
	<path class="st9" d="M75.8,2.7L76,1.2c-3.1,1.1-5.4,3.6-6.3,6.7C73.7,3.9,75.8,2.7,75.8,2.7z"/>
	<path class="st9" d="M76.5,1.1c0.7-0.2,2.1-0.5,3.3-0.4c-1.3,0.4-3.2,1.4-3.4,1.7C76.4,1.6,76.5,1.1,76.5,1.1z"/>
	<path class="st9" d="M76.3,3.1c0,0-0.1,1.5-0.1,3.9c0.4-0.4,1-0.7,1.4-0.8C78.5,3.9,79.5,2,80.3,1C77.9,1.9,76.3,3.1,76.3,3.1z"/>
	<path class="st9" d="M81.2,0.9c0,0-1.6,1.7-2.9,5.1c1.3-0.1,4.2-0.2,5.5,3.4c0,0,0.9-3.1,0.3-4.8c-0.6-1.8-1.1-2.7-2.4-3.6
		C81.3,0.9,81.2,0.9,81.2,0.9z"/>
	<path class="st9" d="M82.9,1.3c2.9,0.9,8.9,6.6,4.8,14.3c-2.6,0.5-4.5,0.9-6.8,0c0.6-0.7,1-1.2,1-1.2s1.9-0.9,2.1-3.8
		C84.9,8,85.6,4.2,82.9,1.3z"/>
	<path class="st9" d="M87.3,16.3c-2.1,2.8-4.9,4.1-8.1,4.1c-3.3,0-5.7-1.2-8.3-4.4c2.9,1.3,5.8,2.5,9.4,0
		C83.2,17.3,87.3,16.3,87.3,16.3z"/>
	<path class="st9" d="M76.2,14.3L76,17c0,0,2.1,0.4,4.7-1.8C78.1,15.8,76.2,14.3,76.2,14.3z"/>
	<g>
		<path class="st9" d="M8.3,5.2v4.2c0,0.5-0.1,0.9-0.3,1.2c-0.2,0.4-0.5,0.6-0.9,0.8c-0.4,0.2-0.8,0.3-1.4,0.3
			c-0.8,0-1.4-0.2-1.9-0.6s-0.7-1-0.7-1.7V5.2h1.1v4.1c0,0.5,0.1,0.9,0.4,1.2s0.6,0.4,1.1,0.4c1,0,1.5-0.5,1.5-1.6V5.2H8.3z"/>
		<path class="st9" d="M14.1,11.6h-1v-3c0-0.4-0.1-0.7-0.2-0.8c-0.2-0.2-0.4-0.3-0.7-0.3c-0.4,0-0.8,0.1-1,0.4s-0.3,0.7-0.3,1.3v2.4
			h-1V6.8h0.8l0.1,0.6h0.1C11,7.2,11.2,7,11.5,6.9s0.6-0.2,0.9-0.2c1.2,0,1.7,0.6,1.7,1.8V11.6z"/>
		<path class="st9" d="M18.6,11.6l-0.2-0.7h0c-0.2,0.3-0.5,0.5-0.7,0.6c-0.2,0.1-0.5,0.2-0.9,0.2c-0.5,0-0.9-0.1-1.1-0.4
			c-0.3-0.3-0.4-0.6-0.4-1.1c0-0.5,0.2-0.9,0.6-1.1s0.9-0.4,1.7-0.4l0.8,0V8.4c0-0.3-0.1-0.5-0.2-0.7c-0.1-0.2-0.4-0.2-0.7-0.2
			c-0.2,0-0.5,0-0.7,0.1s-0.4,0.2-0.7,0.3l-0.3-0.7C16,7,16.3,6.9,16.6,6.8c0.3-0.1,0.6-0.1,0.9-0.1c0.6,0,1.1,0.1,1.4,0.4
			s0.5,0.7,0.5,1.3v3.3H18.6z M17.1,10.9c0.4,0,0.7-0.1,0.9-0.3c0.2-0.2,0.3-0.5,0.3-0.9V9.3l-0.6,0c-0.5,0-0.8,0.1-1.1,0.2
			c-0.2,0.1-0.3,0.4-0.3,0.7c0,0.2,0.1,0.4,0.2,0.5C16.6,10.9,16.8,10.9,17.1,10.9z"/>
		<path class="st9" d="M27.2,11.6h-1v-3c0-0.4-0.1-0.6-0.2-0.8c-0.1-0.2-0.4-0.3-0.7-0.3c-0.4,0-0.7,0.1-0.9,0.4
			c-0.2,0.3-0.3,0.7-0.3,1.3v2.4h-1V6.8h0.8l0.1,0.6h0.1c0.1-0.2,0.3-0.4,0.6-0.5s0.5-0.2,0.8-0.2c0.7,0,1.2,0.3,1.5,0.8h0.1
			c0.1-0.2,0.3-0.4,0.6-0.6s0.6-0.2,0.9-0.2c0.6,0,1,0.1,1.3,0.4c0.3,0.3,0.4,0.7,0.4,1.3v3.2h-1v-3c0-0.4-0.1-0.6-0.2-0.8
			c-0.1-0.2-0.4-0.3-0.7-0.3c-0.4,0-0.7,0.1-0.9,0.4c-0.2,0.2-0.3,0.6-0.3,1.2V11.6z"/>
		<path class="st9" d="M34.8,11.6l-0.2-0.7h0c-0.2,0.3-0.5,0.5-0.7,0.6c-0.2,0.1-0.5,0.2-0.9,0.2c-0.5,0-0.9-0.1-1.1-0.4
			c-0.3-0.3-0.4-0.6-0.4-1.1c0-0.5,0.2-0.9,0.6-1.1s0.9-0.4,1.7-0.4l0.8,0V8.4c0-0.3-0.1-0.5-0.2-0.7c-0.1-0.2-0.4-0.2-0.7-0.2
			c-0.2,0-0.5,0-0.7,0.1s-0.4,0.2-0.7,0.3l-0.3-0.7c0.3-0.1,0.6-0.2,0.9-0.3c0.3-0.1,0.6-0.1,0.9-0.1c0.6,0,1.1,0.1,1.4,0.4
			s0.5,0.7,0.5,1.3v3.3H34.8z M33.2,10.9c0.4,0,0.7-0.1,0.9-0.3c0.2-0.2,0.3-0.5,0.3-0.9V9.3l-0.6,0c-0.5,0-0.8,0.1-1.1,0.2
			c-0.2,0.1-0.3,0.4-0.3,0.7c0,0.2,0.1,0.4,0.2,0.5C32.8,10.9,33,10.9,33.2,10.9z"/>
		<path class="st9" d="M39.4,6.7c0.2,0,0.4,0,0.5,0l-0.1,1c-0.1,0-0.3-0.1-0.5-0.1c-0.4,0-0.7,0.1-1,0.4S38,8.7,38,9.1v2.5h-1V6.8
			h0.8l0.1,0.9H38c0.2-0.3,0.4-0.5,0.6-0.7C38.8,6.8,39.1,6.7,39.4,6.7z"/>
		<path class="st9" d="M42.8,11.7c-0.7,0-1.3-0.2-1.7-0.6c-0.4-0.4-0.6-1-0.6-1.8c0-0.8,0.2-1.4,0.6-1.9c0.4-0.4,1-0.7,1.7-0.7
			c0.5,0,1,0.1,1.4,0.3L44,7.8c-0.4-0.2-0.8-0.3-1.1-0.3c-0.8,0-1.3,0.6-1.3,1.7c0,0.5,0.1,1,0.3,1.2c0.2,0.3,0.5,0.4,0.9,0.4
			c0.5,0,0.9-0.1,1.3-0.3v0.9c-0.2,0.1-0.4,0.2-0.6,0.2C43.3,11.7,43.1,11.7,42.8,11.7z"/>
		<path class="st9" d="M48.3,11.6l-0.2-0.7h0c-0.2,0.3-0.5,0.5-0.7,0.6c-0.2,0.1-0.5,0.2-0.9,0.2c-0.5,0-0.9-0.1-1.1-0.4
			c-0.3-0.3-0.4-0.6-0.4-1.1c0-0.5,0.2-0.9,0.6-1.1s0.9-0.4,1.7-0.4l0.8,0V8.4c0-0.3-0.1-0.5-0.2-0.7c-0.1-0.2-0.4-0.2-0.7-0.2
			c-0.2,0-0.5,0-0.7,0.1S46,7.7,45.8,7.8l-0.3-0.7C45.7,7,46,6.9,46.3,6.8c0.3-0.1,0.6-0.1,0.9-0.1c0.6,0,1.1,0.1,1.4,0.4
			s0.5,0.7,0.5,1.3v3.3H48.3z M46.8,10.9c0.4,0,0.7-0.1,0.9-0.3c0.2-0.2,0.3-0.5,0.3-0.9V9.3l-0.6,0c-0.5,0-0.8,0.1-1.1,0.2
			C46.1,9.7,46,9.9,46,10.2c0,0.2,0.1,0.4,0.2,0.5C46.3,10.9,46.5,10.9,46.8,10.9z"/>
		<path class="st9" d="M54.5,11.7c-0.6,0-1.1-0.2-1.4-0.7s-0.5-1.1-0.5-1.9c0-0.8,0.2-1.4,0.5-1.9c0.3-0.4,0.8-0.7,1.4-0.7
			c0.6,0,1.1,0.2,1.5,0.7H56c0-0.3-0.1-0.6-0.1-0.8V4.8h1v6.8h-0.8L56,11h0C55.6,11.5,55.1,11.7,54.5,11.7z M54.8,10.9
			c0.4,0,0.7-0.1,0.9-0.4c0.2-0.2,0.3-0.6,0.3-1.2V9.2c0-0.6-0.1-1-0.3-1.3c-0.2-0.3-0.5-0.4-0.9-0.4c-0.4,0-0.6,0.1-0.8,0.4
			c-0.2,0.3-0.3,0.7-0.3,1.3c0,0.5,0.1,1,0.3,1.2S54.4,10.9,54.8,10.9z"/>
		<path class="st9" d="M60.6,11.7c-0.8,0-1.3-0.2-1.8-0.7c-0.4-0.4-0.6-1-0.6-1.8c0-0.8,0.2-1.4,0.6-1.9c0.4-0.5,0.9-0.7,1.6-0.7
			c0.6,0,1.1,0.2,1.5,0.6s0.6,0.9,0.6,1.6v0.6h-3.2c0,0.5,0.1,0.8,0.4,1.1c0.2,0.3,0.6,0.4,1,0.4c0.3,0,0.6,0,0.8-0.1
			c0.2-0.1,0.5-0.1,0.8-0.3v0.8c-0.3,0.1-0.5,0.2-0.8,0.3S60.9,11.7,60.6,11.7z M60.4,7.5c-0.3,0-0.6,0.1-0.8,0.3
			c-0.2,0.2-0.3,0.5-0.4,0.9h2.2c0-0.4-0.1-0.7-0.3-0.9C61,7.6,60.7,7.5,60.4,7.5z"/>
	</g>
</g>
<g id="Capa_2_copia_2" class="st0">
	<g class="st1">
		<path class="st10" d="M10.5,26c-3.8-0.8-4.7-1.7-4.7-3.4c0-1.6,1.4-2.8,3.7-2.8c1.8,0,3.4,0.6,5,1.9l1.1-1.5
			c-1.8-1.4-3.6-2.1-6.1-2.1c-3.3,0-5.7,2-5.7,4.8c0,2.9,1.8,4.2,5.9,5.1c3.7,0.8,4.5,1.7,4.5,3.3c0,1.8-1.5,3-3.9,3
			c-2.4,0-4.2-0.8-6-2.5l-1.2,1.4c2.1,1.9,4.4,2.8,7.1,2.8c3.5,0,6-1.9,6-5C16.2,28.3,14.4,26.9,10.5,26"/>
		<path class="st10" d="M24.1,22.5c-3.9,0-6.7,3.1-6.7,6.7s2.8,6.7,6.7,6.7c3.9,0,6.8-3.1,6.8-6.7C30.8,25.6,28,22.5,24.1,22.5
			 M24.1,34.3c-2.7,0-4.8-2.2-4.8-5c0-2.8,1.9-5,4.7-5c2.7,0,4.8,2.2,4.8,5.1C28.9,32,26.9,34.3,24.1,34.3"/>
		<path class="st10" d="M43.9,18.9H42v3.9v0h-6.6v-1c0-1.8,0.7-2.7,2.2-2.7c0.6,0,1.2,0.1,1.9,0.3v-1.7c-0.6-0.2-1.2-0.3-2.1-0.3
			c-2.5,0-3.9,1.5-3.9,4.3v1.1h-1.8v1.7h1.8v11.2h0.1c1,0,1.8-0.8,1.8-1.8v-9.4H42v7.8c0,2.6,1.6,3.6,3.6,3.6c0.9,0,1.6-0.2,2.3-0.5
			v-1.6c-0.7,0.3-1.2,0.4-1.9,0.4c-1.3,0-2.2-0.6-2.2-2.1v-7.5H48v-1.6h-4.1V18.9z"/>
		<path class="st10" d="M75.6,34.7c0-0.2-0.1-0.3-0.2-0.3c-0.1,0-0.2,0-0.3,0l-0.4,0l0,1.2l0.2,0l0-0.5l0.2,0c0.1,0,0.2,0,0.2,0
			c0.1,0,0.1,0.1,0.1,0.3l0,0.1l0,0c0,0,0,0,0,0c0,0,0,0,0,0l0.2,0l0,0c0,0,0,0,0-0.1c0,0,0-0.1,0-0.1l0-0.1c0-0.1,0-0.1-0.1-0.2
			c0-0.1-0.1-0.1-0.2-0.1c0.1,0,0.1,0,0.2-0.1C75.5,34.9,75.6,34.8,75.6,34.7 M75.2,34.9c0,0-0.1,0-0.2,0l-0.2,0l0-0.4l0.2,0
			c0.1,0,0.2,0,0.3,0c0.1,0,0.1,0.1,0.1,0.2C75.4,34.8,75.3,34.9,75.2,34.9"/>
		<path class="st10" d="M75.9,34.2c-0.2-0.2-0.5-0.3-0.8-0.3c-0.3,0-0.6,0.1-0.8,0.3C74.1,34.4,74,34.7,74,35c0,0.3,0.1,0.6,0.3,0.8
			c0.2,0.2,0.5,0.3,0.8,0.3c0.3,0,0.6-0.1,0.8-0.3c0.2-0.2,0.3-0.5,0.3-0.8C76.2,34.7,76.1,34.4,75.9,34.2 M75.7,35.7
			c-0.2,0.2-0.4,0.3-0.7,0.3c-0.3,0-0.5-0.1-0.7-0.3c-0.2-0.2-0.3-0.4-0.3-0.7c0-0.3,0.1-0.5,0.3-0.7c0.2-0.2,0.4-0.3,0.7-0.3
			c0.3,0,0.5,0.1,0.7,0.3c0.2,0.2,0.3,0.4,0.3,0.7C76,35.2,75.9,35.5,75.7,35.7"/>
		<polygon class="st10" points="54.5,40.3 52.2,40.3 54.3,35.6 49.1,23 51.5,23 54.1,29.6 55.4,33.3 56.8,29.7 59.6,23 62,23 		"/>
		<path class="st10" d="M71.6,25.8c-1.1-1-2.3-1.2-3.6-1.2c-1.8,0-3.2,0.6-3.2,1.9c0,1.3,1.6,1.7,3.2,1.9c2.3,0.3,5.4,0.7,5.4,3.9
			c-0.1,2.6-2.5,3.8-5.4,3.8c-2.1,0-4.3-0.6-5.7-2.4l1.2-1.5c1.1,1.4,3,2,4.6,2c1.4,0,3.2-0.4,3.2-2c0-1.4-1.5-1.8-3.4-2
			c-2.5-0.3-5.1-1-5.1-3.7c0-2.7,2.7-3.8,5.2-3.7c1.9,0,3.5,0.5,4.9,1.7L71.6,25.8L71.6,25.8z"/>
	</g>
	<g class="st1">
		<path class="st10" d="M8.7,2.7v4.4C8.7,7.9,8.5,8.5,8,9S6.9,9.6,6,9.6S4.6,9.4,4.1,9C3.7,8.5,3.5,7.9,3.5,7.1V2.7h0.8v4.5
			c0,0.6,0.2,1,0.5,1.3s0.8,0.5,1.4,0.5c0.6,0,1-0.2,1.3-0.5c0.3-0.3,0.5-0.7,0.5-1.3V2.7H8.7z"/>
		<path class="st10" d="M13.9,9.5V6.2c0-0.4-0.1-0.7-0.3-0.9S13.1,5,12.7,5c-0.5,0-0.9,0.1-1.2,0.4c-0.2,0.3-0.4,0.8-0.4,1.4v2.7
			h-0.8V4.4H11l0.1,0.7h0c0.2-0.3,0.4-0.4,0.7-0.6c0.3-0.1,0.6-0.2,1-0.2c0.6,0,1.1,0.1,1.4,0.4c0.3,0.3,0.5,0.8,0.5,1.4v3.3H13.9z"
			/>
		<path class="st10" d="M19.4,9.5l-0.2-0.7h0c-0.3,0.3-0.5,0.5-0.8,0.7s-0.6,0.2-1,0.2c-0.5,0-0.9-0.1-1.2-0.4
			C16,9,15.9,8.6,15.9,8.1c0-1,0.8-1.6,2.5-1.6l0.9,0V6.1c0-0.4-0.1-0.7-0.3-0.9C18.8,5.1,18.5,5,18.2,5c-0.4,0-0.9,0.1-1.5,0.4
			l-0.2-0.6c0.3-0.1,0.5-0.2,0.8-0.3c0.3-0.1,0.6-0.1,0.9-0.1c0.6,0,1.1,0.1,1.4,0.4S20,5.4,20,6v3.5H19.4z M17.7,9
			c0.5,0,0.9-0.1,1.1-0.4s0.4-0.6,0.4-1.1V7l-0.8,0c-0.6,0-1.1,0.1-1.3,0.3c-0.3,0.2-0.4,0.4-0.4,0.8c0,0.3,0.1,0.5,0.3,0.6
			S17.4,9,17.7,9z"/>
		<path class="st10" d="M30.6,9.5V6.2c0-0.4-0.1-0.7-0.3-0.9C30.2,5.1,29.9,5,29.6,5c-0.5,0-0.8,0.1-1.1,0.4
			c-0.2,0.3-0.3,0.7-0.3,1.3v2.9h-0.8V6.2c0-0.4-0.1-0.7-0.3-0.9C26.9,5.1,26.6,5,26.3,5c-0.5,0-0.8,0.1-1.1,0.4
			c-0.2,0.3-0.3,0.8-0.3,1.4v2.7h-0.8V4.4h0.6l0.1,0.7h0c0.1-0.2,0.4-0.4,0.6-0.6c0.3-0.1,0.6-0.2,0.9-0.2c0.8,0,1.3,0.3,1.6,0.9h0
			c0.2-0.3,0.4-0.5,0.7-0.6c0.3-0.2,0.6-0.2,1-0.2c0.6,0,1,0.1,1.3,0.4c0.3,0.3,0.4,0.8,0.4,1.4v3.3H30.6z"/>
		<path class="st10" d="M36.2,9.5L36,8.8h0c-0.3,0.3-0.5,0.5-0.8,0.7s-0.6,0.2-1,0.2c-0.5,0-0.9-0.1-1.2-0.4
			c-0.3-0.3-0.4-0.6-0.4-1.1c0-1,0.8-1.6,2.5-1.6l0.9,0V6.1c0-0.4-0.1-0.7-0.3-0.9C35.5,5.1,35.3,5,34.9,5c-0.4,0-0.9,0.1-1.5,0.4
			l-0.2-0.6c0.3-0.1,0.5-0.2,0.8-0.3c0.3-0.1,0.6-0.1,0.9-0.1c0.6,0,1.1,0.1,1.4,0.4s0.4,0.7,0.4,1.3v3.5H36.2z M34.4,9
			c0.5,0,0.9-0.1,1.1-0.4S36,8,36,7.5V7l-0.8,0c-0.6,0-1.1,0.1-1.3,0.3c-0.3,0.2-0.4,0.4-0.4,0.8c0,0.3,0.1,0.5,0.3,0.6
			S34.1,9,34.4,9z"/>
		<path class="st10" d="M40.7,4.3c0.2,0,0.4,0,0.6,0.1l-0.1,0.7C41,5,40.8,5,40.6,5c-0.4,0-0.8,0.2-1.1,0.5
			c-0.3,0.3-0.4,0.8-0.4,1.3v2.8h-0.8V4.4H39l0.1,0.9h0c0.2-0.3,0.4-0.6,0.7-0.8C40.1,4.4,40.4,4.3,40.7,4.3z"/>
		<path class="st10" d="M44.3,9.6c-0.7,0-1.3-0.2-1.7-0.7C42.2,8.5,42,7.8,42,7c0-0.9,0.2-1.5,0.6-2c0.4-0.5,1-0.7,1.8-0.7
			c0.2,0,0.5,0,0.7,0.1s0.4,0.1,0.6,0.2l-0.2,0.7c-0.2-0.1-0.4-0.1-0.6-0.2C44.7,5,44.5,5,44.3,5c-1,0-1.6,0.7-1.6,2
			c0,0.6,0.1,1.1,0.4,1.5c0.3,0.3,0.6,0.5,1.1,0.5c0.4,0,0.9-0.1,1.3-0.3v0.7C45.3,9.5,44.8,9.6,44.3,9.6z"/>
		<path class="st10" d="M50,9.5l-0.2-0.7h0c-0.3,0.3-0.5,0.5-0.8,0.7s-0.6,0.2-1,0.2c-0.5,0-0.9-0.1-1.2-0.4
			c-0.3-0.3-0.4-0.6-0.4-1.1c0-1,0.8-1.6,2.5-1.6l0.9,0V6.1c0-0.4-0.1-0.7-0.3-0.9C49.4,5.1,49.1,5,48.7,5c-0.4,0-0.9,0.1-1.5,0.4
			L47,4.8c0.3-0.1,0.5-0.2,0.8-0.3c0.3-0.1,0.6-0.1,0.9-0.1c0.6,0,1.1,0.1,1.4,0.4s0.4,0.7,0.4,1.3v3.5H50z M48.2,9
			c0.5,0,0.9-0.1,1.1-0.4s0.4-0.6,0.4-1.1V7L49,7c-0.6,0-1.1,0.1-1.3,0.3s-0.4,0.4-0.4,0.8c0,0.3,0.1,0.5,0.3,0.6S47.9,9,48.2,9z"/>
		<path class="st10" d="M58.1,8.8L58.1,8.8c-0.4,0.5-0.9,0.8-1.7,0.8c-0.7,0-1.2-0.2-1.6-0.7c-0.4-0.5-0.6-1.1-0.6-2s0.2-1.5,0.6-2
			c0.4-0.5,0.9-0.7,1.6-0.7c0.7,0,1.2,0.3,1.6,0.8h0.1l0-0.4l0-0.4V2.2h0.8v7.3h-0.6L58.1,8.8z M56.6,9c0.5,0,0.9-0.1,1.2-0.4
			s0.4-0.8,0.4-1.4V7c0-0.7-0.1-1.2-0.4-1.6C57.5,5.1,57.1,5,56.6,5c-0.5,0-0.8,0.2-1,0.5c-0.2,0.4-0.4,0.9-0.4,1.5
			c0,0.7,0.1,1.1,0.4,1.5C55.8,8.8,56.1,9,56.6,9z"/>
		<path class="st10" d="M62.7,9.6c-0.8,0-1.4-0.2-1.8-0.7c-0.4-0.5-0.7-1.1-0.7-1.9c0-0.8,0.2-1.5,0.6-2s1-0.7,1.6-0.7
			c0.6,0,1.2,0.2,1.5,0.6c0.4,0.4,0.6,1,0.6,1.7v0.5H61c0,0.6,0.2,1.1,0.5,1.4c0.3,0.3,0.7,0.5,1.2,0.5c0.6,0,1.1-0.1,1.6-0.3v0.7
			c-0.3,0.1-0.5,0.2-0.8,0.3C63.3,9.6,63,9.6,62.7,9.6z M62.5,5c-0.4,0-0.7,0.1-1,0.4C61.2,5.6,61.1,6,61,6.5h2.7
			c0-0.5-0.1-0.9-0.3-1.1C63.2,5.1,62.9,5,62.5,5z"/>
	</g>
	<path class="st11" d="M75.8,13.8c0,0-1.3-1.3-1.3-3.3s1.3-3.2,1.3-3.2s-0.1-1.7-0.1-4c-1.3,0.9-4.3,3.3-6.3,5.5
		c-0.3,2.8,0.1,4.3,0.9,6.3c1.3,0.7,3.5,1.9,5,1.8C75.5,15.7,75.8,13.8,75.8,13.8z"/>
	<path class="st11" d="M75.8,2.7L76,1.2c-3.1,1.1-5.4,3.6-6.3,6.7C73.7,3.9,75.8,2.7,75.8,2.7z"/>
	<path class="st11" d="M76.5,1.1c0.7-0.2,2.1-0.5,3.3-0.4c-1.3,0.4-3.2,1.4-3.4,1.7C76.4,1.6,76.5,1.1,76.5,1.1z"/>
	<path class="st11" d="M76.3,3.1c0,0-0.1,1.5-0.1,3.9c0.4-0.4,1-0.7,1.4-0.8C78.5,3.9,79.5,2,80.3,1C77.9,1.9,76.3,3.1,76.3,3.1z"/>
	<path class="st11" d="M81.2,0.9c0,0-1.6,1.7-2.9,5.1c1.3-0.1,4.2-0.2,5.5,3.4c0,0,0.9-3.1,0.3-4.8c-0.6-1.8-1.1-2.7-2.4-3.6
		C81.3,0.9,81.2,0.9,81.2,0.9z"/>
	<path class="st11" d="M82.9,1.3c2.9,0.9,8.9,6.6,4.8,14.3c-2.6,0.5-4.5,0.9-6.8,0c0.6-0.7,1-1.2,1-1.2s1.9-0.9,2.1-3.8
		C84.9,8,85.6,4.2,82.9,1.3z"/>
	<path class="st11" d="M87.3,16.3c-2.1,2.8-4.9,4.1-8.1,4.1c-3.3,0-5.7-1.2-8.3-4.4c2.9,1.3,5.8,2.5,9.4,0
		C83.2,17.3,87.3,16.3,87.3,16.3z"/>
	<path class="st11" d="M76.2,14.3L76,17c0,0,2.1,0.4,4.7-1.8C78.1,15.8,76.2,14.3,76.2,14.3z"/>
</g>
<g id="Capa_5">
	<g>
		<rect class="st12" width="90" height="40"/>
	</g>
</g>
</svg>
